<svg width="32" height="32" viewBox="0 0 32 32" fill="none" xmlns="http://www.w3.org/2000/svg">
<path d="M2.28816 5.29251L6.28816 1.29251C6.4758 1.10487 6.7303 0.999451 6.99566 0.999451C7.26102 0.999451 7.51552 1.10487 7.70316 1.29251C7.8908 1.48015 7.99622 1.73464 7.99622 2.00001C7.99622 2.26537 7.8908 2.51987 7.70316 2.70751L7.51816 2.89126L14.4144 8.06376L19.1919 9.02001C19.3854 9.05876 19.5631 9.15352 19.7032 9.29251L30.1207 19.7075C30.6832 20.2701 30.9993 21.0331 30.9993 21.8288C30.9993 22.6244 30.6832 23.3874 30.1207 23.95L24.9457 29.125C24.3831 29.6876 23.62 30.0036 22.8244 30.0036C22.0288 30.0036 21.2658 29.6876 20.7032 29.125L10.2882 18.7113C10.1489 18.5715 10.0541 18.3936 10.0157 18.2L9.05941 13.4225L3.88691 6.52626L3.70316 6.71126C3.61025 6.80417 3.49995 6.87787 3.37856 6.92815C3.25716 6.97843 3.12705 7.00431 2.99566 7.00431C2.86426 7.00431 2.73416 6.97843 2.61276 6.92815C2.49137 6.87787 2.38107 6.80417 2.28816 6.71126C2.19525 6.61835 2.12155 6.50805 2.07127 6.38665C2.02098 6.26526 1.9951 6.13515 1.9951 6.00376C1.9951 5.87236 2.02098 5.74225 2.07127 5.62086C2.12155 5.49947 2.19525 5.38917 2.28816 5.29626V5.29251ZM20.9957 13.4138L14.4094 20L19.9957 25.5863L26.5819 19L20.9957 13.4138ZM22.8244 28C22.9556 28.0004 23.0856 27.9747 23.2068 27.9245C23.328 27.8743 23.4381 27.8005 23.5307 27.7075L28.7032 22.535C28.8906 22.3475 28.9958 22.0932 28.9958 21.8281C28.9958 21.563 28.8906 21.3088 28.7032 21.1213L27.9957 20.4138L21.4094 27L22.1207 27.7075C22.3074 27.8941 22.5604 27.9992 22.8244 28ZM10.7957 12.4C10.8853 12.5193 10.9469 12.6573 10.9757 12.8038L11.9169 17.5075L12.9957 18.5863L19.5819 12L18.5032 10.9213L13.7994 9.98001C13.653 9.9512 13.515 9.88967 13.3957 9.80001L6.08941 4.32001L5.31566 5.09376L10.7957 12.4Z" fill="#1E1E20"/>
</svg>
