<svg width="32" height="32" viewBox="0 0 32 32" fill="none" xmlns="http://www.w3.org/2000/svg">
<path d="M20.4988 10C21.191 10 21.8677 9.79473 22.4433 9.41015C23.0188 9.02556 23.4675 8.47894 23.7324 7.83939C23.9973 7.19985 24.0666 6.49612 23.9315 5.81719C23.7965 5.13825 23.4631 4.51461 22.9737 4.02513C22.4842 3.53564 21.8605 3.2023 21.1816 3.06725C20.5027 2.9322 19.7989 3.00152 19.1594 3.26642C18.5198 3.53133 17.9732 3.97993 17.5886 4.55551C17.2041 5.13108 16.9988 5.80777 16.9988 6.5C16.9988 7.42826 17.3675 8.3185 18.0239 8.97488C18.6803 9.63125 19.5705 10 20.4988 10ZM20.4988 5C20.7955 5 21.0855 5.08798 21.3321 5.2528C21.5788 5.41762 21.7711 5.65189 21.8846 5.92598C21.9981 6.20007 22.0278 6.50167 21.97 6.79264C21.9121 7.08361 21.7692 7.35088 21.5594 7.56066C21.3497 7.77044 21.0824 7.9133 20.7914 7.97118C20.5004 8.02906 20.1988 7.99935 19.9248 7.88582C19.6507 7.77229 19.4164 7.58003 19.2516 7.33336C19.0868 7.08668 18.9988 6.79667 18.9988 6.5C18.9988 6.10218 19.1568 5.72065 19.4381 5.43934C19.7194 5.15804 20.101 5 20.4988 5ZM24.9988 17C24.0099 17 23.0432 17.2932 22.2209 17.8427C21.3987 18.3921 20.7578 19.173 20.3794 20.0866C20.0009 21.0002 19.9019 22.0056 20.0949 22.9755C20.2878 23.9454 20.764 24.8363 21.4632 25.5355C22.1625 26.2348 23.0534 26.711 24.0233 26.9039C24.9932 27.0969 25.9986 26.9978 26.9122 26.6194C27.8258 26.241 28.6067 25.6001 29.1561 24.7779C29.7055 23.9556 29.9988 22.9889 29.9988 22C29.9988 20.6739 29.472 19.4022 28.5343 18.4645C27.5966 17.5268 26.3249 17 24.9988 17ZM24.9988 25C24.4054 25 23.8254 24.8241 23.3321 24.4944C22.8387 24.1648 22.4542 23.6962 22.2271 23.1481C22.0001 22.5999 21.9407 21.9967 22.0564 21.4147C22.1722 20.8328 22.4579 20.2982 22.8775 19.8787C23.297 19.4591 23.8316 19.1734 24.4135 19.0576C24.9955 18.9419 25.5987 19.0013 26.1468 19.2284C26.695 19.4554 27.1635 19.8399 27.4932 20.3333C27.8228 20.8266 27.9988 21.4067 27.9988 22C27.9988 22.7957 27.6827 23.5587 27.1201 24.1213C26.5575 24.6839 25.7944 25 24.9988 25ZM6.99878 17C6.00988 17 5.04318 17.2932 4.22093 17.8427C3.39868 18.3921 2.75782 19.173 2.37938 20.0866C2.00095 21.0002 1.90193 22.0056 2.09486 22.9755C2.28778 23.9454 2.76399 24.8363 3.46325 25.5355C4.16251 26.2348 5.05343 26.711 6.02333 26.9039C6.99324 27.0969 7.99857 26.9978 8.9122 26.6194C9.82583 26.241 10.6067 25.6001 11.1561 24.7779C11.7055 23.9556 11.9988 22.9889 11.9988 22C11.9988 21.3434 11.8695 20.6932 11.6182 20.0866C11.3669 19.48 10.9986 18.9288 10.5343 18.4645C10.07 18.0002 9.51883 17.6319 8.9122 17.3806C8.30557 17.1293 7.65539 17 6.99878 17ZM6.99878 25C6.40544 25 5.82542 24.8241 5.33207 24.4944C4.83872 24.1648 4.45421 23.6962 4.22714 23.1481C4.00008 22.5999 3.94067 21.9967 4.05643 21.4147C4.17218 20.8328 4.4579 20.2982 4.87746 19.8787C5.29702 19.4591 5.83157 19.1734 6.41351 19.0576C6.99545 18.9419 7.59865 19.0013 8.14683 19.2284C8.69501 19.4554 9.16355 19.8399 9.49319 20.3333C9.82283 20.8266 9.99878 21.4067 9.99878 22C9.99878 22.7957 9.68271 23.5587 9.1201 24.1213C8.55749 24.6839 7.79443 25 6.99878 25ZM23.9988 15H18.9988C18.8674 15.0001 18.7373 14.9743 18.6159 14.9241C18.4945 14.874 18.3842 14.8003 18.2913 14.7075L14.9988 11.4138L12.4125 14L16.7063 18.2925C16.7991 18.3854 16.8727 18.4958 16.9229 18.6172C16.9731 18.7385 16.9989 18.8686 16.9988 19V25C16.9988 25.2652 16.8934 25.5196 16.7059 25.7071C16.5184 25.8946 16.264 26 15.9988 26C15.7336 26 15.4792 25.8946 15.2917 25.7071C15.1041 25.5196 14.9988 25.2652 14.9988 25V19.4138L10.2913 14.7075C10.1983 14.6146 10.1245 14.5043 10.0742 14.3829C10.0239 14.2615 9.99799 14.1314 9.99799 14C9.99799 13.8686 10.0239 13.7385 10.0742 13.6171C10.1245 13.4957 10.1983 13.3854 10.2913 13.2925L14.2913 9.2925C14.3842 9.19953 14.4944 9.12577 14.6158 9.07544C14.7372 9.02512 14.8674 8.99922 14.9988 8.99922C15.1302 8.99922 15.2603 9.02512 15.3817 9.07544C15.5031 9.12577 15.6134 9.19953 15.7063 9.2925L19.4125 13H23.9988C24.264 13 24.5184 13.1054 24.7059 13.2929C24.8934 13.4804 24.9988 13.7348 24.9988 14C24.9988 14.2652 24.8934 14.5196 24.7059 14.7071C24.5184 14.8946 24.264 15 23.9988 15Z" fill="#1E1E20"/>
</svg>
