<svg width="32" height="32" viewBox="0 0 32 32" fill="none" xmlns="http://www.w3.org/2000/svg">
<path d="M25.9988 7H22.5338L20.83 4.445C20.7388 4.30819 20.6151 4.196 20.4701 4.11838C20.3251 4.04076 20.1632 4.0001 19.9988 4H11.9988C11.8343 4.0001 11.6724 4.04076 11.5274 4.11838C11.3824 4.196 11.2588 4.30819 11.1675 4.445L9.46253 7H5.99878C5.20313 7 4.44007 7.31607 3.87746 7.87868C3.31485 8.44129 2.99878 9.20435 2.99878 10V24C2.99878 24.7956 3.31485 25.5587 3.87746 26.1213C4.44007 26.6839 5.20313 27 5.99878 27H25.9988C26.7944 27 27.5575 26.6839 28.1201 26.1213C28.6827 25.5587 28.9988 24.7956 28.9988 24V10C28.9988 9.20435 28.6827 8.44129 28.1201 7.87868C27.5575 7.31607 26.7944 7 25.9988 7ZM26.9988 24C26.9988 24.2652 26.8934 24.5196 26.7059 24.7071C26.5184 24.8946 26.264 25 25.9988 25H5.99878C5.73356 25 5.47921 24.8946 5.29167 24.7071C5.10414 24.5196 4.99878 24.2652 4.99878 24V10C4.99878 9.73478 5.10414 9.48043 5.29167 9.29289C5.47921 9.10536 5.73356 9 5.99878 9H9.99878C10.1635 9.00011 10.3256 8.95954 10.4708 8.88191C10.6161 8.80428 10.7399 8.69199 10.8313 8.555L12.5338 6H19.4625L21.1663 8.555C21.2577 8.69199 21.3815 8.80428 21.5267 8.88191C21.6719 8.95954 21.8341 9.00011 21.9988 9H25.9988C26.264 9 26.5184 9.10536 26.7059 9.29289C26.8934 9.48043 26.9988 9.73478 26.9988 10V24ZM15.9988 11C14.911 11 13.8476 11.3226 12.9431 11.9269C12.0387 12.5313 11.3337 13.3902 10.9174 14.3952C10.5012 15.4002 10.3922 16.5061 10.6045 17.573C10.8167 18.6399 11.3405 19.6199 12.1097 20.3891C12.8789 21.1583 13.8589 21.6821 14.9258 21.8943C15.9927 22.1065 17.0985 21.9976 18.1035 21.5813C19.1085 21.1651 19.9675 20.4601 20.5719 19.5556C21.1762 18.6512 21.4988 17.5878 21.4988 16.5C21.4971 15.0418 20.9171 13.6438 19.886 12.6127C18.8549 11.5816 17.457 11.0017 15.9988 11ZM15.9988 20C15.3065 20 14.6299 19.7947 14.0543 19.4101C13.4787 19.0256 13.0301 18.4789 12.7652 17.8394C12.5003 17.1999 12.431 16.4961 12.566 15.8172C12.7011 15.1383 13.0344 14.5146 13.5239 14.0251C14.0134 13.5356 14.637 13.2023 15.316 13.0673C15.9949 12.9322 16.6986 13.0015 17.3382 13.2664C17.9777 13.5313 18.5243 13.9799 18.9089 14.5555C19.2935 15.1311 19.4988 15.8078 19.4988 16.5C19.4988 17.4283 19.13 18.3185 18.4737 18.9749C17.8173 19.6313 16.927 20 15.9988 20Z" fill="#1E1E20"/>
</svg>
