<svg width="32" height="32" viewBox="0 0 32 32" fill="none" xmlns="http://www.w3.org/2000/svg">
<path d="M23.2088 13.035C23.0921 12.795 22.9646 12.5617 22.8263 12.335C23.6189 10.5878 23.7118 8.60332 23.0859 6.78974C22.4599 4.97615 21.1628 3.47139 19.4613 2.585C19.2261 2.46234 18.9518 2.43814 18.6987 2.51773C18.4456 2.59731 18.2346 2.77416 18.1119 3.00938C17.9892 3.24459 17.965 3.5189 18.0446 3.77196C18.1242 4.02501 18.3011 4.23609 18.5363 4.35875C19.6295 4.92757 20.5 5.84706 21.0082 6.96974C21.5164 8.09242 21.6328 9.35325 21.3388 10.55C19.873 9.22985 17.9702 8.4993 15.9975 8.4993C14.0249 8.4993 12.1221 9.22985 10.6563 10.55C10.3625 9.35296 10.4793 8.09193 10.9879 6.96921C11.4966 5.8465 12.3676 4.92718 13.4613 4.35875C13.5777 4.29802 13.6811 4.21493 13.7655 4.11425C13.8498 4.01357 13.9135 3.89726 13.9529 3.77196C13.9923 3.64665 14.0067 3.51482 13.9951 3.38398C13.9836 3.25313 13.9464 3.12584 13.8857 3.00938C13.8249 2.89291 13.7418 2.78955 13.6412 2.70519C13.5405 2.62083 13.4242 2.55713 13.2989 2.51773C13.1736 2.47832 13.0417 2.46398 12.9109 2.47552C12.78 2.48706 12.6527 2.52427 12.5363 2.585C10.8345 3.47118 9.53713 4.97584 8.91097 6.78945C8.28481 8.60306 8.37752 10.5877 9.17003 12.335C9.03121 12.5609 8.90396 12.7937 8.78878 13.0325C6.9315 13.2111 5.20725 14.0748 3.95201 15.4553C2.69676 16.8358 2.00046 18.6342 1.99878 20.5C1.99878 20.7652 2.10414 21.0196 2.29167 21.2071C2.47921 21.3946 2.73356 21.5 2.99878 21.5C3.264 21.5 3.51835 21.3946 3.70589 21.2071C3.89342 21.0196 3.99878 20.7652 3.99878 20.5C4.00054 19.2835 4.40476 18.1017 5.14842 17.1389C5.89209 16.1762 6.9334 15.4865 8.11003 15.1775C7.78865 17.0856 8.17036 19.0454 9.18434 20.6934C10.1983 22.3414 11.7757 23.5655 13.6238 24.1388C12.7564 25.1222 11.5663 25.7634 10.2679 25.9468C8.96947 26.1301 7.64828 25.8436 6.54253 25.1388C6.43202 25.063 6.30741 25.0103 6.17611 24.9836C6.04481 24.957 5.90949 24.957 5.7782 24.9836C5.6469 25.0103 5.5223 25.0631 5.41179 25.1388C5.30129 25.2146 5.20713 25.3118 5.13492 25.4246C5.0627 25.5375 5.0139 25.6637 4.99141 25.7957C4.96891 25.9278 4.97319 26.0631 5.00398 26.1935C5.03477 26.3238 5.09145 26.4467 5.17065 26.5548C5.24985 26.6628 5.34996 26.7539 5.46503 26.8225C6.29811 27.3538 7.22795 27.7152 8.20113 27.886C9.17431 28.0568 10.1717 28.0336 11.1359 27.8178C12.1001 27.602 13.0121 27.1978 13.8196 26.6284C14.6271 26.059 15.3142 25.3357 15.8413 24.5H15.9988H16.1563C16.6833 25.3365 17.3705 26.0605 18.1784 26.6305C18.9862 27.2004 19.8988 27.605 20.8636 27.821C21.8284 28.0369 22.8264 28.06 23.8001 27.8889C24.7739 27.7177 25.7042 27.3557 26.5375 26.8238C26.6526 26.7551 26.7527 26.6641 26.8319 26.556C26.9111 26.448 26.9678 26.3251 26.9986 26.1947C27.0294 26.0643 27.0336 25.9291 27.0112 25.797C26.9887 25.6649 26.9399 25.5387 26.8676 25.4259C26.7954 25.313 26.7013 25.2158 26.5908 25.1401C26.4803 25.0643 26.3557 25.0115 26.2244 24.9849C26.0931 24.9582 25.9578 24.9582 25.8265 24.9849C25.6952 25.0115 25.5705 25.0643 25.46 25.14C24.3543 25.8448 23.0331 26.1314 21.7347 25.948C20.4363 25.7647 19.2461 25.1235 18.3788 24.14C20.2259 23.5658 21.8022 22.3412 22.8152 20.6934C23.8282 19.0455 24.2092 17.0862 23.8875 15.1788C25.0639 15.4877 26.1051 16.1772 26.8488 17.1397C27.5924 18.1022 27.9967 19.2837 27.9988 20.5C27.9988 20.7652 28.1041 21.0196 28.2917 21.2071C28.4792 21.3946 28.7336 21.5 28.9988 21.5C29.264 21.5 29.5184 21.3946 29.7059 21.2071C29.8934 21.0196 29.9988 20.7652 29.9988 20.5C29.9965 18.6346 29.2999 16.8368 28.0447 15.4569C26.7895 14.0769 25.0656 13.2136 23.2088 13.035ZM15.9988 10.5C16.8365 10.4998 17.665 10.6754 18.4307 11.0153C19.1963 11.3553 19.8821 11.8522 20.4438 12.4738C19.9334 13.1744 19.2647 13.7445 18.4921 14.1375C17.7195 14.5306 16.865 14.7355 15.9982 14.7355C15.1313 14.7355 14.2768 14.5306 13.5042 14.1375C12.7316 13.7445 12.0629 13.1744 11.5525 12.4738C12.1142 11.8519 12.8002 11.3549 13.5661 11.0149C14.332 10.6749 15.1608 10.4995 15.9988 10.5ZM16.0138 16.74L15.9988 16.765L15.9838 16.74H16.0138ZM9.99878 16.5C9.99847 16.009 10.0589 15.5199 10.1788 15.0438C10.9963 15.1456 11.7805 15.4297 12.4734 15.8752C13.1664 16.3207 13.7504 16.9162 14.1824 17.6176C14.6143 18.3191 14.8832 19.1086 14.9691 19.928C15.0551 20.7473 14.9558 21.5754 14.6788 22.3513C13.3513 22.0502 12.1653 21.3074 11.3151 20.2444C10.4649 19.1814 10.0008 17.8612 9.99878 16.5ZM17.32 22.3513C17.043 21.5754 16.9438 20.7473 17.0297 19.928C17.1156 19.1086 17.3845 18.3191 17.8164 17.6176C18.2484 16.9162 18.8324 16.3207 19.5254 15.8752C20.2184 15.4297 21.0025 15.1456 21.82 15.0438C22.0139 15.8194 22.0507 16.626 21.9285 17.4161C21.8062 18.2062 21.5273 18.9638 21.108 19.6446C20.6888 20.3254 20.1378 20.9155 19.4873 21.3803C18.8368 21.8451 18.0999 22.1752 17.32 22.3513Z" fill="#1E1E20"/>
</svg>
