<svg width="28" height="25" viewBox="0 0 28 25" fill="none" xmlns="http://www.w3.org/2000/svg">
<path d="M1.01488 1.01604C1.66724 0.365389 2.55101 0 3.47238 0C4.39375 0 5.27752 0.365389 5.92988 1.01604L27.7061 22.7998C27.8323 22.926 27.9224 23.0837 27.967 23.2566C28.0116 23.4294 28.0092 23.611 27.96 23.7825C27.9107 23.9541 27.8165 24.1093 27.687 24.2321C27.5575 24.355 27.3975 24.4409 27.2236 24.481C25.7399 24.825 24.2218 24.999 22.6986 24.9998C18.5799 24.9998 14.4586 23.7248 10.5799 21.221C6.60988 18.6585 4.30613 15.7435 4.20488 15.6198C4.0542 15.4275 3.97915 15.1866 3.99389 14.9427C4.00863 14.6989 4.11214 14.4688 4.28488 14.296L6.83363 11.7498L1.01488 5.92979C0.364917 5.27732 -2.12193e-05 4.39388 -2.12193e-05 3.47292C-2.12193e-05 2.55195 0.364917 1.66851 1.01488 1.01604ZM6.36113 15.0548C7.94724 16.7834 9.74764 18.3024 11.7186 19.5748C16.0224 22.3373 20.4611 23.4398 24.9399 22.8623L11.7486 9.66604L6.36113 15.0548ZM2.42863 4.51729L8.24863 10.3373L10.3336 8.24979L4.51488 2.42979C4.23823 2.15314 3.86301 1.99771 3.47176 1.99771C3.08051 1.99771 2.70529 2.15314 2.42863 2.42979C2.15198 2.70645 1.99655 3.08167 1.99655 3.47292C1.99655 3.86416 2.15198 4.23939 2.42863 4.51604V4.51729Z" fill="#1E1E20"/>
</svg>
