<svg width="32" height="32" viewBox="0 0 32 32" fill="none" xmlns="http://www.w3.org/2000/svg">
<g clip-path="url(#clip0_263_12255)">
<path d="M30.9475 7.6525L24.4775 4.125C24.3309 4.04389 24.1663 4.0009 23.9988 4H19.9988C19.7336 4 19.4792 4.10536 19.2917 4.29289C19.1041 4.48043 18.9988 4.73478 18.9988 5C18.9988 5.79565 18.6827 6.55871 18.1201 7.12132C17.5575 7.68393 16.7944 8 15.9988 8C15.2031 8 14.4401 7.68393 13.8775 7.12132C13.3148 6.55871 12.9988 5.79565 12.9988 5C12.9988 4.73478 12.8934 4.48043 12.7059 4.29289C12.5183 4.10536 12.264 4 11.9988 4H7.99878C7.83082 4.0007 7.66574 4.04368 7.51878 4.125L1.05003 7.6525C0.588905 7.89619 0.243235 8.3128 0.0888161 8.81097C-0.0656032 9.30914 -0.0161694 9.84822 0.226278 10.31L2.63503 14.9113C2.81017 15.2421 3.0727 15.5185 3.39404 15.7105C3.71538 15.9024 4.08322 16.0026 4.45753 16H6.99878V26C6.99878 26.5304 7.20949 27.0391 7.58456 27.4142C7.95964 27.7893 8.46835 28 8.99878 28H22.9988C23.5292 28 24.0379 27.7893 24.413 27.4142C24.7881 27.0391 24.9988 26.5304 24.9988 26V16H27.5413C27.9156 16.0026 28.2834 15.9024 28.6048 15.7105C28.9261 15.5185 29.1886 15.2421 29.3638 14.9113L31.7725 10.31C32.0149 9.84807 32.0641 9.30887 31.9095 8.81068C31.7548 8.31249 31.4089 7.89598 30.9475 7.6525ZM4.45753 14C4.43905 14.0009 4.42088 13.9951 4.40628 13.9838L2.01003 9.4075L6.99878 6.685V14H4.45753ZM22.9988 26H8.99878V6H11.0988C11.3295 7.12895 11.9431 8.14356 12.8357 8.87222C13.7283 9.60089 14.8452 9.99888 15.9975 9.99888C17.1498 9.99888 18.2667 9.60089 19.1594 8.87222C20.052 8.14356 20.6656 7.12895 20.8963 6H22.9988V26ZM27.5925 13.9825C27.5856 13.9887 27.5775 13.9935 27.5687 13.9965C27.5599 13.9995 27.5506 14.0007 27.5413 14H24.9988V6.685L29.9888 9.4075L27.5925 13.9825Z" fill="#1E1E20"/>
</g>
<defs>
<clipPath id="clip0_263_12255">
<rect width="32" height="32" fill="white" transform="translate(-0.0012207)"/>
</clipPath>
</defs>
</svg>
