<svg width="32" height="32" viewBox="0 0 32 32" fill="none" xmlns="http://www.w3.org/2000/svg">
<path d="M28.5663 10.8325L6.55878 4.0825C6.26091 3.99562 5.94691 3.97924 5.64162 4.03465C5.33633 4.09006 5.04812 4.21574 4.79978 4.40175C4.55144 4.58776 4.34978 4.82901 4.21076 5.1064C4.07174 5.38379 3.99917 5.68972 3.99878 6V24C3.99878 24.5304 4.20949 25.0391 4.58457 25.4142C4.95964 25.7893 5.46835 26 5.99878 26C6.19003 26.0001 6.3803 25.9727 6.56378 25.9188L16.9988 22.7163V24C16.9988 24.5304 17.2095 25.0391 17.5846 25.4142C17.9596 25.7893 18.4683 26 18.9988 26H22.9988C23.5292 26 24.0379 25.7893 24.413 25.4142C24.7881 25.0391 24.9988 24.5304 24.9988 24V20.2625L28.5663 19.1688C28.9792 19.0447 29.3413 18.7913 29.5992 18.4458C29.8571 18.1003 29.9972 17.6811 29.9988 17.25V12.75C29.9969 12.3191 29.8567 11.9002 29.5988 11.555C29.3409 11.2098 28.979 10.9565 28.5663 10.8325ZM16.9988 20.625L5.99878 24V6L16.9988 9.375V20.625ZM22.9988 24H18.9988V22.1025L22.9988 20.875V24ZM27.9988 17.25H27.985L18.9988 20.01V9.99L27.985 12.74H27.9988V17.24V17.25Z" fill="#1E1E20"/>
</svg>
