<svg width="32" height="32" viewBox="0 0 32 32" fill="none" xmlns="http://www.w3.org/2000/svg">
<path d="M26.4988 10C25.8065 10 25.1299 10.2053 24.5543 10.5899C23.9787 10.9744 23.5301 11.5211 23.2652 12.1606C23.0003 12.8002 22.931 13.5039 23.066 14.1828C23.2011 14.8618 23.5344 15.4854 24.0239 15.9749C24.5134 16.4644 25.137 16.7977 25.816 16.9327C26.4949 17.0678 27.1986 16.9985 27.8382 16.7336C28.4777 16.4687 29.0243 16.0201 29.4089 15.4445C29.7935 14.8689 29.9988 14.1922 29.9988 13.5C29.9988 12.5717 29.63 11.6815 28.9737 11.0251C28.3173 10.3688 27.427 10 26.4988 10ZM26.4988 15C26.2021 15 25.9121 14.912 25.6654 14.7472C25.4188 14.5824 25.2265 14.3481 25.113 14.074C24.9994 13.7999 24.9697 13.4983 25.0276 13.2074C25.0855 12.9164 25.2283 12.6491 25.4381 12.4393C25.6479 12.2296 25.9152 12.0867 26.2061 12.0288C26.4971 11.9709 26.7987 12.0007 27.0728 12.1142C27.3469 12.2277 27.5812 12.42 27.746 12.6666C27.9108 12.9133 27.9988 13.2033 27.9988 13.5C27.9988 13.8978 27.8407 14.2794 27.5594 14.5607C27.2781 14.842 26.8966 15 26.4988 15ZM8.99878 13.5C8.99878 12.8078 8.79351 12.1311 8.40892 11.5555C8.02434 10.9799 7.47771 10.5313 6.83817 10.2664C6.19863 10.0015 5.4949 9.9322 4.81596 10.0673C4.13703 10.2023 3.51339 10.5356 3.02391 11.0251C2.53442 11.5146 2.20108 12.1383 2.06603 12.8172C1.93098 13.4961 2.0003 14.1999 2.2652 14.8394C2.53011 15.4789 2.97871 16.0256 3.55429 16.4101C4.12986 16.7947 4.80655 17 5.49878 17C6.42704 17 7.31728 16.6313 7.97365 15.9749C8.63003 15.3185 8.99878 14.4283 8.99878 13.5ZM5.49878 15C5.20211 15 4.9121 14.912 4.66543 14.7472C4.41875 14.5824 4.22649 14.3481 4.11296 14.074C3.99943 13.7999 3.96973 13.4983 4.0276 13.2074C4.08548 12.9164 4.22834 12.6491 4.43812 12.4393C4.6479 12.2296 4.91517 12.0867 5.20615 12.0288C5.49712 11.9709 5.79872 12.0007 6.07281 12.1142C6.3469 12.2277 6.58116 12.42 6.74599 12.6666C6.91081 12.9133 6.99878 13.2033 6.99878 13.5C6.99878 13.8978 6.84075 14.2794 6.55944 14.5607C6.27814 14.842 5.89661 15 5.49878 15ZM11.4988 11C12.191 11 12.8677 10.7947 13.4433 10.4101C14.0188 10.0256 14.4675 9.47893 14.7324 8.83939C14.9973 8.19985 15.0666 7.49612 14.9315 6.81719C14.7965 6.13825 14.4631 5.51461 13.9737 5.02513C13.4842 4.53564 12.8605 4.2023 12.1816 4.06725C11.5027 3.9322 10.7989 4.00152 10.1594 4.26642C9.51985 4.53133 8.97322 4.97993 8.58864 5.55551C8.20405 6.13108 7.99878 6.80777 7.99878 7.5C7.99878 8.42826 8.36753 9.3185 9.02391 9.97487C9.68028 10.6313 10.5705 11 11.4988 11ZM11.4988 6C11.7955 6 12.0855 6.08798 12.3321 6.2528C12.5788 6.41762 12.7711 6.65189 12.8846 6.92598C12.9981 7.20007 13.0278 7.50167 12.97 7.79264C12.9121 8.08361 12.7692 8.35088 12.5594 8.56066C12.3497 8.77044 12.0824 8.9133 11.7914 8.97118C11.5004 9.02906 11.1988 8.99935 10.9248 8.88582C10.6507 8.77229 10.4164 8.58003 10.2516 8.33336C10.0868 8.08668 9.99878 7.79667 9.99878 7.5C9.99878 7.10218 10.1568 6.72065 10.4381 6.43934C10.7194 6.15804 11.101 6 11.4988 6ZM20.4988 11C21.191 11 21.8677 10.7947 22.4433 10.4101C23.0188 10.0256 23.4675 9.47893 23.7324 8.83939C23.9973 8.19985 24.0666 7.49612 23.9315 6.81719C23.7965 6.13825 23.4631 5.51461 22.9737 5.02513C22.4842 4.53564 21.8605 4.2023 21.1816 4.06725C20.5027 3.9322 19.7989 4.00152 19.1594 4.26642C18.5198 4.53133 17.9732 4.97993 17.5886 5.55551C17.2041 6.13108 16.9988 6.80777 16.9988 7.5C16.9988 8.42826 17.3675 9.3185 18.0239 9.97487C18.6803 10.6313 19.5705 11 20.4988 11ZM20.4988 6C20.7955 6 21.0855 6.08798 21.3321 6.2528C21.5788 6.41762 21.7711 6.65189 21.8846 6.92598C21.9981 7.20007 22.0278 7.50167 21.97 7.79264C21.9121 8.08361 21.7692 8.35088 21.5594 8.56066C21.3497 8.77044 21.0824 8.9133 20.7914 8.97118C20.5004 9.02906 20.1988 8.99935 19.9248 8.88582C19.6507 8.77229 19.4164 8.58003 19.2516 8.33336C19.0868 8.08668 18.9988 7.79667 18.9988 7.5C18.9988 7.10218 19.1568 6.72065 19.4381 6.43934C19.7194 6.15804 20.101 6 20.4988 6ZM23.3888 18.6075C22.8808 18.3273 22.4331 17.9497 22.0713 17.4962C21.7094 17.0428 21.4406 16.5225 21.28 15.965C20.9475 14.8216 20.2529 13.8169 19.3006 13.102C18.3482 12.3872 17.1896 12.0007 15.9988 12.0007C14.808 12.0007 13.6493 12.3872 12.697 13.102C11.7446 13.8169 11.05 14.8216 10.7175 15.965C10.3963 17.0867 9.64338 18.0352 8.62378 18.6025C7.64568 19.1318 6.87194 19.972 6.42494 20.9903C5.97794 22.0086 5.88319 23.1469 6.15568 24.2251C6.42818 25.3033 7.05235 26.2599 7.9295 26.9436C8.80664 27.6273 9.88667 27.999 10.9988 28C11.6652 28.0019 12.3252 27.8688 12.9388 27.6088C14.8951 26.8019 17.0912 26.8019 19.0475 27.6088C20.2325 28.1241 21.5709 28.1607 22.7823 27.7109C23.9936 27.2611 24.9838 26.3598 25.5451 25.1959C26.1065 24.0321 26.1956 22.6961 25.7936 21.4681C25.3915 20.24 24.5297 19.2153 23.3888 18.6088V18.6075ZM20.9988 26C20.5928 26.0003 20.1909 25.9183 19.8175 25.7588C17.3683 24.7471 14.618 24.7471 12.1688 25.7588C11.457 26.0652 10.6543 26.0844 9.92874 25.8122C9.20318 25.54 8.61108 24.9977 8.27647 24.2987C7.94186 23.5998 7.89069 22.7984 8.13368 22.0626C8.37668 21.3268 8.89498 20.7135 9.58003 20.3513C10.3166 19.9445 10.9657 19.3965 11.4904 18.7387C12.015 18.0809 12.4048 17.3261 12.6375 16.5175C12.8489 15.7895 13.2908 15.1498 13.897 14.6945C14.5031 14.2393 15.2407 13.9932 15.9988 13.9932C16.7568 13.9932 17.4944 14.2393 18.1006 14.6945C18.7067 15.1498 19.1487 15.7895 19.36 16.5175C19.5935 17.3276 19.9845 18.0837 20.5107 18.7424C21.0369 19.4011 21.6878 19.9495 22.4263 20.3563C23.0161 20.6726 23.4832 21.177 23.7532 21.7894C24.0233 22.4017 24.0809 23.0868 23.9168 23.7357C23.7527 24.3845 23.3763 24.9598 22.8475 25.3701C22.3188 25.7804 21.668 26.0021 20.9988 26Z" fill="#1E1E20"/>
</svg>
