<svg width="32" height="32" viewBox="0 0 32 32" fill="none" xmlns="http://www.w3.org/2000/svg">
<path d="M16.9988 15V22C16.9988 22.2652 16.8935 22.5196 16.706 22.7071C16.5184 22.8946 16.2641 23 15.9988 23C15.7336 23 15.4793 22.8946 15.2917 22.7071C15.1042 22.5196 14.9988 22.2652 14.9988 22V15C14.9988 14.7348 15.1042 14.4804 15.2917 14.2929C15.4793 14.1054 15.7336 14 15.9988 14C16.2641 14 16.5184 14.1054 16.706 14.2929C16.8935 14.4804 16.9988 14.7348 16.9988 15ZM21.6038 14.9L20.9038 21.9C20.89 22.0311 20.9022 22.1636 20.9398 22.2899C20.9773 22.4162 21.0395 22.5339 21.1226 22.6361C21.2058 22.7383 21.3084 22.8231 21.4244 22.8855C21.5405 22.948 21.6677 22.9869 21.7988 23C21.8326 23.0019 21.8664 23.0019 21.9001 23C22.1478 22.9997 22.3865 22.9075 22.5701 22.7412C22.7537 22.5749 22.8691 22.3464 22.8938 22.1L23.5938 15.1C23.6204 14.8361 23.541 14.5725 23.3731 14.3671C23.2053 14.1618 22.9627 14.0315 22.6988 14.005C22.435 13.9785 22.1713 14.0579 21.966 14.2257C21.7606 14.3936 21.6304 14.6361 21.6038 14.9ZM10.3938 14.9C10.3673 14.6361 10.2371 14.3936 10.0317 14.2257C9.82635 14.0579 9.56274 13.9785 9.29885 14.005C9.03496 14.0315 8.79241 14.1618 8.62456 14.3671C8.45672 14.5725 8.37732 14.8361 8.40385 15.1L9.10385 22.1C9.12872 22.3475 9.24496 22.5769 9.42987 22.7433C9.61478 22.9097 9.85508 23.0012 10.1038 23C10.1376 23.0019 10.1714 23.0019 10.2051 23C10.3358 22.9869 10.4626 22.9481 10.5783 22.886C10.694 22.8239 10.7963 22.7395 10.8794 22.6379C10.9625 22.5362 11.0248 22.4191 11.0626 22.2934C11.1005 22.1676 11.1132 22.0357 11.1001 21.905L10.3938 14.9ZM29.9901 11.1325L28.1063 25.265C28.0406 25.7446 27.8038 26.1844 27.4395 26.5032C27.0752 26.822 26.608 26.9984 26.1238 27H5.87385C5.38973 26.9984 4.92249 26.822 4.55818 26.5032C4.19388 26.1844 3.95706 25.7446 3.89135 25.265L2.0076 11.1325C1.98871 10.9912 2.00024 10.8476 2.04141 10.7111C2.08258 10.5747 2.15244 10.4486 2.24631 10.3414C2.34017 10.2341 2.45588 10.1482 2.58566 10.0893C2.71545 10.0304 2.85633 9.99999 2.99885 10H8.5451L15.2488 2.34125C15.3427 2.23484 15.4581 2.14962 15.5874 2.09125C15.7167 2.03287 15.857 2.00269 15.9988 2.00269C16.1407 2.00269 16.281 2.03287 16.4103 2.09125C16.5396 2.14962 16.655 2.23484 16.7488 2.34125L23.4526 10H28.9988C29.1414 9.99999 29.2822 10.0304 29.412 10.0893C29.5418 10.1482 29.6575 10.2341 29.7514 10.3414C29.8453 10.4486 29.9151 10.5747 29.9563 10.7111C29.9974 10.8476 30.009 10.9912 29.9901 11.1325ZM11.2026 10H20.7951L15.9988 4.51875L11.2026 10ZM27.8563 12H4.14135L5.87385 25H26.1238L27.8563 12Z" fill="#1E1E20"/>
</svg>
