<svg width="32" height="32" viewBox="0 0 32 32" fill="none" xmlns="http://www.w3.org/2000/svg">
<path d="M5.00552 4.94999C6.25404 3.70151 7.94737 3.00012 9.71302 3.00012C11.4787 3.00012 13.172 3.70151 14.4205 4.94999L27.108 17.6362C28.3304 18.8901 29.0096 20.5751 28.9984 22.3261C28.9872 24.0772 28.2866 25.7534 27.0483 26.9915C25.81 28.2296 24.1337 28.93 22.3827 28.941C20.6316 28.9519 18.9467 28.2726 17.693 27.05L5.00427 14.3637C3.75786 13.1143 3.05799 11.4214 3.05823 9.65661C3.05846 7.89178 3.75878 6.19911 5.00552 4.94999ZM19.1068 25.6362C19.9802 26.5098 21.1648 27.0006 22.4001 27.0007C23.6354 27.0009 24.8201 26.5103 25.6936 25.6369C26.5672 24.7635 27.058 23.5788 27.0581 22.3436C27.0583 21.1083 26.5677 19.9236 25.6943 19.05L20.058 13.4137L13.4705 20L19.1068 25.6362ZM6.41927 12.95L12.058 18.5862L18.643 12L13.0055 6.36374C12.1287 5.50715 10.9495 5.03077 9.72367 5.03793C8.49787 5.04509 7.32431 5.53522 6.45753 6.402C5.59074 7.26879 5.10062 8.44234 5.09346 9.66814C5.08629 10.8939 5.56267 12.0731 6.41927 12.95ZM8.34802 10.2925C8.25504 10.3854 8.18128 10.4957 8.13096 10.6171C8.08064 10.7385 8.05473 10.8686 8.05473 11C8.05473 11.1314 8.08064 11.2615 8.13096 11.3829C8.18128 11.5043 8.25504 11.6146 8.34802 11.7075L11.348 14.7075C11.4409 14.8003 11.5512 14.8739 11.6726 14.9241C11.7939 14.9744 11.924 15.0002 12.0553 15.0001C12.1867 15.0001 12.3167 14.9741 12.438 14.9238C12.5593 14.8735 12.6696 14.7998 12.7624 14.7069C12.8552 14.614 12.9288 14.5037 12.979 14.3823C13.0293 14.261 13.0551 14.1309 13.055 13.9996C13.0549 13.8682 13.029 13.7382 12.9787 13.6169C12.9284 13.4955 12.8547 13.3853 12.7618 13.2925L9.76177 10.2925C9.57425 10.1051 9.32 9.99983 9.0549 9.99983C8.78979 9.99983 8.53554 10.1051 8.34802 10.2925Z" fill="#1E1E20"/>
</svg>
