<svg width="32" height="32" viewBox="0 0 32 32" fill="none" xmlns="http://www.w3.org/2000/svg">
<g clip-path="url(#clip0_263_12259)">
<path d="M31.9125 23.5938L23.9125 5.59375C23.8339 5.41702 23.7058 5.26686 23.5436 5.16148C23.3814 5.05609 23.1922 5 22.9988 5H8.99877C8.80703 5.00031 8.61943 5.05574 8.45831 5.15969C8.29719 5.26363 8.16935 5.41169 8.09002 5.58625C8.08966 5.58874 8.08966 5.59126 8.09002 5.59375V5.60875L0.0850176 23.5938C0.0173281 23.746 -0.0112453 23.9128 0.00189339 24.0789C0.0150321 24.245 0.0694665 24.4051 0.160251 24.5449C0.251035 24.6846 0.375291 24.7994 0.52173 24.8789C0.668168 24.9584 0.832147 25 0.998768 25H30.9988C31.1654 25 31.3294 24.9584 31.4758 24.8789C31.6222 24.7994 31.7465 24.6846 31.8373 24.5449C31.9281 24.4051 31.9825 24.245 31.9956 24.0789C32.0088 23.9128 31.9802 23.746 31.9125 23.5938ZM7.99877 23H2.53752L7.99877 10.7125V23ZM9.99877 23V10.7125L15.46 23H9.99877ZM17.6488 23L10.5375 7H22.3488L29.46 23H17.6488Z" fill="#1E1E20"/>
</g>
<defs>
<clipPath id="clip0_263_12259">
<rect width="32" height="32" fill="white" transform="translate(-0.0012207)"/>
</clipPath>
</defs>
</svg>
