<svg width="32" height="32" viewBox="0 0 32 32" fill="none" xmlns="http://www.w3.org/2000/svg">
<path d="M29.9989 15.8287C29.7706 13.2111 28.8131 10.7099 27.2351 8.60899C25.6571 6.50805 23.5217 4.89154 21.0714 3.94291C18.621 2.99427 15.9538 2.7515 13.3725 3.24216C10.7912 3.73281 8.39905 4.93724 6.46765 6.71875C3.88922 9.08751 2.29622 12.3395 2.00515 15.8287C1.98142 16.1049 2.01534 16.383 2.10477 16.6453C2.19421 16.9077 2.33719 17.1486 2.52466 17.3527C2.71212 17.5569 2.93998 17.7198 3.19376 17.8313C3.44755 17.9427 3.72173 18.0001 3.9989 18H14.9989V25C14.9989 26.0609 15.4203 27.0783 16.1705 27.8284C16.9206 28.5786 17.938 29 18.9989 29C20.0598 29 21.0772 28.5786 21.8273 27.8284C22.5775 27.0783 22.9989 26.0609 22.9989 25C22.9989 24.7348 22.8935 24.4804 22.706 24.2929C22.5185 24.1054 22.2641 24 21.9989 24C21.7337 24 21.4793 24.1054 21.2918 24.2929C21.1043 24.4804 20.9989 24.7348 20.9989 25C20.9989 25.5304 20.7882 26.0391 20.4131 26.4142C20.038 26.7893 19.5293 27 18.9989 27C18.4685 27 17.9598 26.7893 17.5847 26.4142C17.2096 26.0391 16.9989 25.5304 16.9989 25V18H27.9989C28.2766 18.001 28.5515 17.9442 28.806 17.8332C29.0605 17.7221 29.2891 17.5593 29.4773 17.355C29.6654 17.1508 29.809 16.9096 29.8988 16.6468C29.9886 16.384 30.0227 16.1054 29.9989 15.8287ZM3.9989 16C4.22053 13.424 5.26697 10.9881 6.98287 9.05399C8.69876 7.11989 10.9926 5.7907 13.5239 5.26375C12.0589 7.25 10.2301 10.7637 10.0201 16H3.9989ZM12.0176 16C12.1914 12.1537 13.3339 9.39875 14.3052 7.72C14.7841 6.88606 15.352 6.10651 15.9989 5.395C16.6446 6.10662 17.2113 6.88617 17.6889 7.72C19.3489 10.5875 19.8739 13.66 19.9764 16H12.0176ZM21.9739 16C21.7639 10.7637 19.9352 7.25 18.4739 5.2575C21.0068 5.78328 23.3023 7.11295 25.0185 9.04859C26.7348 10.9842 27.7801 13.4223 27.9989 16H21.9739Z" fill="#1E1E20"/>
</svg>
