<svg width="40" height="36" viewBox="0 0 40 36" fill="none" xmlns="http://www.w3.org/2000/svg">
<path fill-rule="evenodd" clip-rule="evenodd" d="M12.2013 19.5302L17 30H12H9V29.4631C9 27.8379 9.33009 26.2297 9.97026 24.736L12.2013 19.5302ZM27.7987 19.5302L23 30H28H31L31 29.4631C31 27.8379 30.6699 26.2297 30.0297 24.736L27.7987 19.5302Z" fill="#37437D"/>
<path fill-rule="evenodd" clip-rule="evenodd" d="M17.3762 28.5444C17.8883 27.6233 18.8714 27 20 27C21.1287 27 22.1117 27.6233 22.6238 28.5444L30.0297 11.2639C30.6699 9.77022 31 8.16203 31 6.53691V6H23C23 7.65686 21.6569 9 20 9C18.3431 9 17 7.65685 17 6H9V6.53691C9 8.16203 9.33009 9.77022 9.97026 11.2639L17.3762 28.5444Z" fill="#F26CF9"/>
</svg>
