<svg width="66" height="66" viewBox="0 0 66 66" fill="none" xmlns="http://www.w3.org/2000/svg">
<rect x="2.0625" y="2" width="62" height="62" rx="31" stroke="#F26CF9" stroke-width="3"/>
<g clip-path="url(#clip0_6311_3550)">
<path d="M52.8704 22.0439L44.3786 17.4141C44.1862 17.3076 43.9701 17.2512 43.7502 17.25H38.5002C38.1521 17.25 37.8183 17.3883 37.5721 17.6344C37.326 17.8806 37.1877 18.2144 37.1877 18.5625C37.1877 19.6068 36.7729 20.6083 36.0344 21.3467C35.296 22.0852 34.2945 22.5 33.2502 22.5C32.2059 22.5 31.2044 22.0852 30.466 21.3467C29.7275 20.6083 29.3127 19.6068 29.3127 18.5625C29.3127 18.2144 29.1744 17.8806 28.9283 17.6344C28.6821 17.3883 28.3483 17.25 28.0002 17.25H22.7502C22.5298 17.2509 22.3131 17.3073 22.1202 17.4141L13.63 22.0439C13.0247 22.3638 12.571 22.9105 12.3684 23.5644C12.1657 24.2183 12.2306 24.9258 12.5488 25.5319L15.7103 31.571C15.9402 32.0052 16.2847 32.368 16.7065 32.62C17.1282 32.8719 17.611 33.0034 18.1023 33H21.4377V46.125C21.4377 46.8212 21.7143 47.4889 22.2065 47.9812C22.6988 48.4734 23.3665 48.75 24.0627 48.75H42.4377C43.1339 48.75 43.8016 48.4734 44.2939 47.9812C44.7861 47.4889 45.0627 46.8212 45.0627 46.125V33H48.3997C48.891 33.0034 49.3738 32.8719 49.7956 32.62C50.2173 32.368 50.5619 32.0052 50.7918 31.571L53.9532 25.5319C54.2713 24.9256 54.336 24.2179 54.133 23.564C53.93 22.9101 53.4759 22.3635 52.8704 22.0439ZM18.1023 30.375C18.0781 30.3761 18.0542 30.3686 18.035 30.3537L14.89 24.3473L21.4377 20.7741V30.375H18.1023ZM42.4377 46.125H24.0627V19.875H26.8189C27.1218 21.3567 27.9271 22.6884 29.0987 23.6448C30.2702 24.6012 31.7362 25.1235 33.2486 25.1235C34.7609 25.1235 36.2269 24.6012 37.3985 23.6448C38.57 22.6884 39.3753 21.3567 39.6782 19.875H42.4377V46.125ZM48.467 30.352C48.4579 30.3602 48.4473 30.3665 48.4357 30.3704C48.4242 30.3744 48.4119 30.3759 48.3997 30.375H45.0627V20.7741L51.6121 24.3473L48.467 30.352Z" fill="#37437D"/>
</g>
<path d="M58.208 7.10437L7.20801 58.1044" stroke="#F26CF9" stroke-width="3"/>
<defs>
<clipPath id="clip0_6311_3550">
<rect width="42" height="42" fill="white" transform="translate(12.25 12)"/>
</clipPath>
</defs>
</svg>
