<svg width="66" height="66" viewBox="0 0 66 66" fill="none" xmlns="http://www.w3.org/2000/svg">
<rect x="2.4375" y="2" width="62" height="62" rx="31" stroke="#F26CF9" stroke-width="3"/>
<path d="M19.1962 18.4968C20.8349 16.8582 23.0574 15.9376 25.3748 15.9376C27.6922 15.9376 29.9147 16.8582 31.5534 18.4968L48.2057 35.1475C49.8101 36.7932 50.7015 39.0047 50.6868 41.303C50.6722 43.6013 49.7526 45.8013 48.1273 47.4263C46.502 49.0514 44.302 49.9706 42.0037 49.985C39.7054 49.9994 37.494 49.1077 35.8485 47.5031L19.1945 30.8524C17.5586 29.2125 16.64 26.9906 16.6404 24.6743C16.6407 22.3579 17.5598 20.1363 19.1962 18.4968ZM37.7041 45.6475C38.8504 46.7941 40.4052 47.4383 42.0265 47.4384C43.6478 47.4386 45.2028 46.7947 46.3493 45.6484C47.4959 44.502 48.1401 42.9472 48.1402 41.3259C48.1404 39.7046 47.4965 38.1496 46.3502 37.0031L38.9526 29.6055L30.3065 38.25L37.7041 45.6475ZM21.0517 28.9968L28.4526 36.3944L37.0954 27.75L29.6962 20.3524C28.5453 19.2281 26.9976 18.6028 25.3887 18.6122C23.7799 18.6216 22.2396 19.2649 21.1019 20.4026C19.9643 21.5402 19.321 23.0805 19.3116 24.6894C19.3022 26.2983 19.9274 27.846 21.0517 28.9968ZM23.5832 25.5089C23.4612 25.6308 23.3644 25.7755 23.2983 25.9348C23.2323 26.0942 23.1983 26.265 23.1983 26.4375C23.1983 26.6099 23.2323 26.7807 23.2983 26.9401C23.3644 27.0994 23.4612 27.2442 23.5832 27.366L27.5207 31.3035C27.6427 31.4254 27.7874 31.522 27.9467 31.5879C28.106 31.6538 28.2767 31.6877 28.4491 31.6876C28.6214 31.6875 28.7921 31.6535 28.9513 31.5875C29.1106 31.5214 29.2552 31.4247 29.3771 31.3027C29.4989 31.1808 29.5955 31.036 29.6614 30.8767C29.7273 30.7175 29.7612 30.5468 29.7611 30.3744C29.7611 30.202 29.727 30.0313 29.661 29.8721C29.595 29.7129 29.4982 29.5682 29.3763 29.4464L25.4388 25.5089C25.1926 25.2629 24.8589 25.1247 24.511 25.1247C24.163 25.1247 23.8293 25.2629 23.5832 25.5089Z" fill="#37437D"/>
<path d="M58.583 7.10437L7.58301 58.1044" stroke="#F26CF9" stroke-width="3"/>
</svg>
