<svg width="66" height="66" viewBox="0 0 66 66" fill="none" xmlns="http://www.w3.org/2000/svg">
<rect x="2.0625" y="2" width="62" height="62" rx="31" stroke="#F26CF9" stroke-width="3"/>
<path d="M51.625 32.7753C51.3253 29.3397 50.0686 26.0568 47.9975 23.2994C45.9263 20.5419 43.1237 18.4202 39.9076 17.1751C36.6915 15.93 33.1908 15.6114 29.8028 16.2554C26.4148 16.8994 23.2752 18.4802 20.7402 20.8184C17.356 23.9274 15.2652 28.1957 14.8832 32.7753C14.852 33.1377 14.8966 33.5027 15.0139 33.847C15.1313 34.1914 15.319 34.5075 15.565 34.7755C15.8111 35.0435 16.1101 35.2573 16.4432 35.4036C16.7763 35.5498 17.1362 35.6253 17.5 35.6251H31.9375V44.8126C31.9375 46.2049 32.4906 47.5403 33.4752 48.5249C34.4597 49.5094 35.7951 50.0626 37.1875 50.0626C38.5799 50.0626 39.9152 49.5094 40.8998 48.5249C41.8843 47.5403 42.4375 46.2049 42.4375 44.8126C42.4375 44.4645 42.2992 44.1306 42.0531 43.8845C41.8069 43.6383 41.4731 43.5001 41.125 43.5001C40.7769 43.5001 40.443 43.6383 40.1969 43.8845C39.9508 44.1306 39.8125 44.4645 39.8125 44.8126C39.8125 45.5087 39.5359 46.1764 39.0436 46.6687C38.5513 47.161 37.8837 47.4376 37.1875 47.4376C36.4913 47.4376 35.8236 47.161 35.3313 46.6687C34.839 46.1764 34.5625 45.5087 34.5625 44.8126V35.6251H49C49.3644 35.6264 49.7252 35.5518 50.0593 35.4061C50.3934 35.2603 50.6934 35.0466 50.9403 34.7785C51.1873 34.5104 51.3757 34.1939 51.4936 33.849C51.6114 33.5041 51.6562 33.1384 51.625 32.7753ZM17.5 33.0001C17.7909 29.619 19.1643 26.4219 21.4164 23.8834C23.6685 21.3449 26.6792 19.6004 30.0015 18.9087C28.0787 21.5157 25.6785 26.1275 25.4029 33.0001H17.5ZM28.0246 33.0001C28.2526 27.9519 29.7522 24.3359 31.0269 22.1326C31.6555 21.038 32.4009 20.0149 33.25 19.081C34.0975 20.015 34.8412 21.0382 35.4681 22.1326C37.6468 25.8961 38.3359 29.9288 38.4704 33.0001H28.0246ZM41.0922 33.0001C40.8165 26.1275 38.4163 21.5157 36.4984 18.9005C39.8229 19.5906 42.8357 21.3358 45.0882 23.8763C47.3408 26.4168 48.7128 29.6169 49 33.0001H41.0922Z" fill="#37437D"/>
<path d="M58.208 7.10437L7.20801 58.1044" stroke="#F26CF9" stroke-width="3"/>
</svg>
